<svg width="171" height="39" viewBox="0 0 171 39" fill="none" xmlns="http://www.w3.org/2000/svg">
<path d="M153.353 24.1364L157.324 0H163.461L159.472 24.1364H153.353ZM145.802 15.1193L146.842 9.01705H170.978L169.938 15.1193H145.802Z" fill="#1C6EA4"/>
<path d="M144.201 39L147.04 22H151.427L148.576 39H144.201ZM138.802 32.649L139.545 28.351H156.802L156.058 32.649H138.802Z" fill="#658864"/>
<path d="M133.897 8.8182L132.994 14.2727H117.21L118.13 8.8182H133.897ZM122.733 2.54547H129.994L125.937 26.9546C125.824 27.625 125.841 28.1477 125.988 28.5227C126.136 28.8864 126.38 29.1421 126.721 29.2898C127.074 29.4375 127.494 29.5114 127.983 29.5114C128.324 29.5114 128.67 29.483 129.022 29.4262C129.375 29.358 129.642 29.3068 129.824 29.2727L130.096 34.6762C129.687 34.8012 129.136 34.9375 128.443 35.0852C127.761 35.233 126.954 35.3239 126.022 35.358C124.25 35.4262 122.75 35.1932 121.522 34.6591C120.295 34.1137 119.415 33.2784 118.88 32.1534C118.346 31.0284 118.233 29.6137 118.54 27.9091L122.733 2.54547Z" fill="white"/>
<path d="M115.443 16.2841L108.847 16.6932C108.812 16.1137 108.653 15.5966 108.369 15.1421C108.097 14.6762 107.693 14.3068 107.159 14.0341C106.636 13.7614 105.977 13.625 105.182 13.625C103.989 13.625 102.926 13.8977 101.994 14.4432C101.062 14.9887 100.534 15.6875 100.409 16.5398C100.307 17.0852 100.449 17.5455 100.835 17.9205C101.222 18.2955 102 18.6137 103.17 18.875L107.773 19.8296C110.227 20.3523 112 21.2216 113.091 22.4375C114.193 23.6534 114.585 25.2443 114.267 27.2103C113.983 28.8807 113.25 30.3409 112.068 31.5909C110.886 32.8296 109.386 33.7955 107.568 34.4887C105.75 35.1705 103.733 35.5114 101.517 35.5114C97.9602 35.5114 95.2557 34.7841 93.4034 33.3296C91.5511 31.875 90.6591 29.9034 90.7273 27.4148L97.8182 27.0398C97.875 28.108 98.25 28.9148 98.9432 29.4603C99.6364 29.9943 100.585 30.2671 101.79 30.2784C103.142 30.3012 104.29 30.0227 105.233 29.4432C106.187 28.8523 106.727 28.1364 106.852 27.2955C106.943 26.7046 106.773 26.2273 106.341 25.8637C105.92 25.5 105.148 25.1989 104.023 24.9603L99.6591 24.0568C97.1818 23.5455 95.4034 22.6307 94.3239 21.3125C93.2443 19.9943 92.875 18.3182 93.2159 16.2841C93.4886 14.6591 94.1648 13.2671 95.2443 12.108C96.3352 10.9375 97.7386 10.0398 99.4545 9.41479C101.182 8.78979 103.131 8.47729 105.301 8.47729C108.699 8.47729 111.256 9.17616 112.972 10.5739C114.699 11.9716 115.523 13.875 115.443 16.2841Z" fill="white"/>
<path d="M75.6233 35.5114C72.9415 35.5114 70.7199 34.9659 68.9585 33.875C67.1971 32.7728 65.9585 31.2159 65.2426 29.2046C64.538 27.1818 64.4187 24.7898 64.8846 22.0284C65.3392 19.3352 66.254 16.9716 67.629 14.9375C69.0153 12.9034 70.754 11.3182 72.8449 10.1818C74.9358 9.04548 77.2653 8.47729 79.8335 8.47729C81.5608 8.47729 83.1233 8.7557 84.521 9.31252C85.9301 9.85798 87.1005 10.6875 88.0324 11.8012C88.9642 12.9034 89.6005 14.2841 89.9415 15.9432C90.2937 17.6023 90.288 19.5455 89.9244 21.7728L89.6005 23.7671H67.5096L68.2085 19.2671H83.4812C83.6517 18.2216 83.5835 17.2955 83.2767 16.4887C82.9699 15.6818 82.4585 15.0512 81.7426 14.5966C81.0267 14.1307 80.146 13.8978 79.1005 13.8978C78.0324 13.8978 77.0324 14.1591 76.1005 14.6818C75.1687 15.2046 74.3846 15.8921 73.7483 16.7443C73.1233 17.5852 72.7199 18.5 72.538 19.4887L71.7369 23.9546C71.5096 25.3296 71.5551 26.4716 71.8733 27.3807C72.2028 28.2898 72.771 28.9716 73.5778 29.4262C74.3846 29.8693 75.4074 30.0909 76.646 30.0909C77.4528 30.0909 78.2085 29.9773 78.913 29.75C79.6289 29.5228 80.2653 29.1875 80.8221 28.7443C81.379 28.2898 81.8335 27.7273 82.1858 27.0568L88.8165 27.5C88.2028 29.1137 87.271 30.5227 86.021 31.7273C84.771 32.9205 83.2653 33.8523 81.504 34.5228C79.754 35.1818 77.7937 35.5114 75.6233 35.5114Z" fill="white"/>
<path d="M67.1713 8.81818L53.6542 35H45.4724L40.6826 8.81818H48.0803L50.3985 27.5511H50.6713L59.211 8.81818H67.1713Z" fill="white"/>
<path d="M21.2153 19.8637L18.6926 35H11.4482L15.8119 8.8182H22.7153L21.9653 13.4375H22.2551C23.0846 11.9034 24.2551 10.6932 25.7664 9.80684C27.2892 8.92048 29.0221 8.47729 30.9653 8.47729C32.7835 8.47729 34.3005 8.87502 35.5164 9.67048C36.7437 10.4659 37.6073 11.5966 38.1073 13.0625C38.6187 14.5284 38.7039 16.2841 38.363 18.3296L35.5676 35H28.3062L30.8801 19.625C31.1414 18.0227 30.9369 16.7727 30.2664 15.875C29.6073 14.9659 28.5448 14.5114 27.0789 14.5114C26.1017 14.5114 25.2039 14.7216 24.3857 15.1421C23.5676 15.5625 22.8801 16.1762 22.3232 16.983C21.7778 17.7784 21.4085 18.7387 21.2153 19.8637Z" fill="white"/>
<path d="M13.1761 0.0908813L7.38068 35H0L5.79546 0.0908813H13.1761Z" fill="white"/>
</svg>
